REM DIRINDEX 1\2,1\4,1\5,1\6,1\7,1\3\8,1\3\9,1\3\10
REM DIRNAME cjc113,folder01,folder02,folder03,folder04,folder05,folder06,folder07,folder08,folder09
TITLE ""
FILE "DB4500_5th_6C_49.mp3" MP3
  TRACK 01 AUDIO
    TITLE "0:"
    INDEX 01 00:00:00
  TRACK 02 AUDIO
    TITLE "8:cjc113_5258"
    INDEX 01 00:00:01
  TRACK 03 AUDIO
    TITLE "0:"
    INDEX 01 00:01:21
  TRACK 04 AUDIO
    TITLE "9:cjc113_5259"
    INDEX 01 00:01:38
  TRACK 05 AUDIO
    TITLE "0:"
    INDEX 01 00:03:23
  TRACK 06 AUDIO
    TITLE "10:cjc113_5260"
    INDEX 01 00:03:35
  TRACK 07 AUDIO
    TITLE "0:"
    INDEX 01 00:06:00
  TRACK 08 AUDIO
    TITLE "8:cjc113_5261"
    INDEX 01 00:06:39
  TRACK 09 AUDIO
    TITLE "0:"
    INDEX 01 00:07:58
  TRACK 10 AUDIO
    TITLE "9:cjc113_5262"
    INDEX 01 00:07:74
  TRACK 11 AUDIO
    TITLE "0:"
    INDEX 01 00:09:36
  TRACK 12 AUDIO
    TITLE "10:cjc113_5263"
    INDEX 01 00:09:53
  TRACK 13 AUDIO
    TITLE "0:"
    INDEX 01 00:12:54
  TRACK 14 AUDIO
    TITLE "8:cjc113_5264"
    INDEX 01 00:13:22
  TRACK 15 AUDIO
    TITLE "0:"
    INDEX 01 00:14:39
  TRACK 16 AUDIO
    TITLE "9:cjc113_5265"
    INDEX 01 00:14:56
  TRACK 17 AUDIO
    TITLE "0:"
    INDEX 01 00:16:06
  TRACK 18 AUDIO
    TITLE "10:cjc113_5266"
    INDEX 01 00:16:22
  TRACK 19 AUDIO
    TITLE "0:"
    INDEX 01 00:19:32
  TRACK 20 AUDIO
    TITLE "8:cjc113_5267"
    INDEX 01 00:19:69
  TRACK 21 AUDIO
    TITLE "0:"
    INDEX 01 00:21:23
  TRACK 22 AUDIO
    TITLE "9:cjc113_5268"
    INDEX 01 00:21:41
  TRACK 23 AUDIO
    TITLE "0:"
    INDEX 01 00:23:24
  TRACK 24 AUDIO
    TITLE "10:cjc113_5269"
    INDEX 01 00:23:40
  TRACK 25 AUDIO
    TITLE "0:"
    INDEX 01 00:25:68
  TRACK 26 AUDIO
    TITLE "8:cjc113_5270"
    INDEX 01 00:26:32
  TRACK 27 AUDIO
    TITLE "0:"
    INDEX 01 00:27:51
  TRACK 28 AUDIO
    TITLE "9:cjc113_5271"
    INDEX 01 00:27:67
  TRACK 29 AUDIO
    TITLE "0:"
    INDEX 01 00:29:15
  TRACK 30 AUDIO
    TITLE "10:cjc113_5272"
    INDEX 01 00:29:33
  TRACK 31 AUDIO
    TITLE "0:"
    INDEX 01 00:33:26
  TRACK 32 AUDIO
    TITLE "8:cjc113_5273"
    INDEX 01 00:33:64
  TRACK 33 AUDIO
    TITLE "0:"
    INDEX 01 00:34:67
  TRACK 34 AUDIO
    TITLE "9:cjc113_5274"
    INDEX 01 00:35:06
  TRACK 35 AUDIO
    TITLE "0:"
    INDEX 01 00:36:33
  TRACK 36 AUDIO
    TITLE "10:cjc113_5275"
    INDEX 01 00:36:52
  TRACK 37 AUDIO
    TITLE "0:"
    INDEX 01 00:39:54
  TRACK 38 AUDIO
    TITLE "8:cjc113_5276"
    INDEX 01 00:40:17
  TRACK 39 AUDIO
    TITLE "0:"
    INDEX 01 00:41:38
  TRACK 40 AUDIO
    TITLE "9:cjc113_5277"
    INDEX 01 00:41:55
  TRACK 41 AUDIO
    TITLE "0:"
    INDEX 01 00:43:11
  TRACK 42 AUDIO
    TITLE "10:cjc113_5278"
    INDEX 01 00:43:25
  TRACK 43 AUDIO
    TITLE "0:"
    INDEX 01 00:46:35
  TRACK 44 AUDIO
    TITLE "8:cjc113_5279"
    INDEX 01 00:47:01
  TRACK 45 AUDIO
    TITLE "0:"
    INDEX 01 00:48:34
  TRACK 46 AUDIO
    TITLE "9:cjc113_5280"
    INDEX 01 00:48:53
  TRACK 47 AUDIO
    TITLE "0:"
    INDEX 01 00:50:27
  TRACK 48 AUDIO
    TITLE "10:cjc113_5281"
    INDEX 01 00:50:46
  TRACK 49 AUDIO
    TITLE "0:"
    INDEX 01 00:54:64
  TRACK 50 AUDIO
    TITLE "8:cjc113_5282"
    INDEX 01 00:55:28
  TRACK 51 AUDIO
    TITLE "0:"
    INDEX 01 00:56:59
  TRACK 52 AUDIO
    TITLE "9:cjc113_5283"
    INDEX 01 00:56:72
  TRACK 53 AUDIO
    TITLE "0:"
    INDEX 01 00:58:24
  TRACK 54 AUDIO
    TITLE "10:cjc113_5284"
    INDEX 01 00:58:40
  TRACK 55 AUDIO
    TITLE "0:"
    INDEX 01 01:03:04
  TRACK 56 AUDIO
    TITLE "8:cjc113_5285"
    INDEX 01 01:03:41
  TRACK 57 AUDIO
    TITLE "0:"
    INDEX 01 01:04:68
  TRACK 58 AUDIO
    TITLE "9:cjc113_5286"
    INDEX 01 01:05:11
  TRACK 59 AUDIO
    TITLE "0:"
    INDEX 01 01:06:51
  TRACK 60 AUDIO
    TITLE "10:cjc113_5287"
    INDEX 01 01:06:67
  TRACK 61 AUDIO
    TITLE "0:"
    INDEX 01 01:13:36
  TRACK 62 AUDIO
    TITLE "8:cjc113_5288"
    INDEX 01 01:14:00
  TRACK 63 AUDIO
    TITLE "0:"
    INDEX 01 01:15:17
  TRACK 64 AUDIO
    TITLE "9:cjc113_5289"
    INDEX 01 01:15:31
  TRACK 65 AUDIO
    TITLE "0:"
    INDEX 01 01:16:56
  TRACK 66 AUDIO
    TITLE "10:cjc113_5290"
    INDEX 01 01:16:69
  TRACK 67 AUDIO
    TITLE "0:"
    INDEX 01 01:20:22
  TRACK 68 AUDIO
    TITLE "8:cjc113_5291"
    INDEX 01 01:20:59
  TRACK 69 AUDIO
    TITLE "0:"
    INDEX 01 01:21:74
  TRACK 70 AUDIO
    TITLE "9:cjc113_5292"
    INDEX 01 01:22:19
  TRACK 71 AUDIO
    TITLE "0:"
    INDEX 01 01:23:50
  TRACK 72 AUDIO
    TITLE "10:cjc113_5293"
    INDEX 01 01:23:69
  TRACK 73 AUDIO
    TITLE "0:"
    INDEX 01 01:27:32
  TRACK 74 AUDIO
    TITLE "8:cjc113_5294"
    INDEX 01 01:27:71
  TRACK 75 AUDIO
    TITLE "0:"
    INDEX 01 01:29:03
  TRACK 76 AUDIO
    TITLE "9:cjc113_5295"
    INDEX 01 01:29:17
  TRACK 77 AUDIO
    TITLE "0:"
    INDEX 01 01:30:52
  TRACK 78 AUDIO
    TITLE "10:cjc113_5296"
    INDEX 01 01:30:69
  TRACK 79 AUDIO
    TITLE "0:"
    INDEX 01 01:34:36
  TRACK 80 AUDIO
    TITLE "8:cjc113_5297"
    INDEX 01 01:35:00
  TRACK 81 AUDIO
    TITLE "0:"
    INDEX 01 01:36:23
  TRACK 82 AUDIO
    TITLE "9:cjc113_5298"
    INDEX 01 01:36:37
  TRACK 83 AUDIO
    TITLE "0:"
    INDEX 01 01:37:64
  TRACK 84 AUDIO
    TITLE "10:cjc113_5299"
    INDEX 01 01:38:02
  TRACK 85 AUDIO
    TITLE "0:"
    INDEX 01 01:41:42
  TRACK 86 AUDIO
    TITLE "8:cjc113_5300"
    INDEX 01 01:42:10
  TRACK 87 AUDIO
    TITLE "0:"
    INDEX 01 01:43:13
  TRACK 88 AUDIO
    TITLE "9:cjc113_5301"
    INDEX 01 01:43:29
  TRACK 89 AUDIO
    TITLE "0:"
    INDEX 01 01:44:58
  TRACK 90 AUDIO
    TITLE "10:cjc113_5302"
    INDEX 01 01:44:73
  TRACK 91 AUDIO
    TITLE "0:"
    INDEX 01 01:48:46
  TRACK 92 AUDIO
    TITLE "8:cjc113_5303"
    INDEX 01 01:49:06
  TRACK 93 AUDIO
    TITLE "0:"
    INDEX 01 01:50:02
  TRACK 94 AUDIO
    TITLE "9:cjc113_5304"
    INDEX 01 01:50:21
  TRACK 95 AUDIO
    TITLE "0:"
    INDEX 01 01:51:32
  TRACK 96 AUDIO
    TITLE "10:cjc113_5305"
    INDEX 01 01:51:50
  TRACK 97 AUDIO
    TITLE "0:"
    INDEX 01 01:56:14
